<?xml version="1.0" encoding="UTF-8" standalone="no"?>
<!DOCTYPE svg PUBLIC "-//W3C//DTD SVG 1.1//EN" "http://www.w3.org/Graphics/SVG/1.1/DTD/svg11.dtd">
<svg version="1.1" xmlns="http://www.w3.org/2000/svg" xmlns:xlink="http://www.w3.org/1999/xlink" preserveAspectRatio="xMidYMid meet" viewBox="0 0 640 640" width="35" height="35"><defs><path d="M406.19 136.56C406.19 183.25 367.57 221.16 320 221.16C272.43 221.16 233.81 183.25 233.81 136.56C233.81 89.86 272.43 51.95 320 51.95C367.57 51.95 406.19 89.86 406.19 136.56Z" id="cTawbFEuo"></path><path d="M585.91 249.86C585.91 296.56 547.29 334.47 499.72 334.47C452.15 334.47 413.53 296.56 413.53 249.86C413.53 203.17 452.15 165.26 499.72 165.26C547.29 165.26 585.91 203.17 585.91 249.86Z" id="j89dAcu6Cq"></path><path d="M585.91 453.3C585.91 500 547.29 537.91 499.72 537.91C452.15 537.91 413.53 500 413.53 453.3C413.53 406.61 452.15 368.7 499.72 368.7C547.29 368.7 585.91 406.61 585.91 453.3Z" id="cZduKQI2S"></path><path d="M406.19 531.81C406.19 578.51 367.57 616.42 320 616.42C272.43 616.42 233.81 578.51 233.81 531.81C233.81 485.12 272.43 447.21 320 447.21C367.57 447.21 406.19 485.12 406.19 531.81Z" id="b1eJBq4q4i"></path><path d="M222.09 453.3C222.09 500 183.47 537.91 135.91 537.91C88.34 537.91 49.72 500 49.72 453.3C49.72 406.61 88.34 368.7 135.91 368.7C183.47 368.7 222.09 406.61 222.09 453.3Z" id="alrwKp3OI"></path><path d="M233.81 249.86C233.81 296.56 195.2 334.47 147.63 334.47C100.06 334.47 61.44 296.56 61.44 249.86C61.44 203.17 100.06 165.26 147.63 165.26C195.2 165.26 233.81 203.17 233.81 249.86Z" id="f56N0xrhsd"></path></defs><g><g><g><use xlink:href="#cTawbFEuo" opacity="1" fill="#f9f9f9" fill-opacity="1"></use></g><g><use xlink:href="#j89dAcu6Cq" opacity="1" fill="#f9f9f9" fill-opacity="1"></use></g><g><use xlink:href="#cZduKQI2S" opacity="1" fill="#f9f9f9" fill-opacity="1"></use></g><g><use xlink:href="#b1eJBq4q4i" opacity="1" fill="#f9f9f9" fill-opacity="1"></use></g><g><use xlink:href="#alrwKp3OI" opacity="1" fill="#f9f9f9" fill-opacity="1"></use></g><g><use xlink:href="#f56N0xrhsd" opacity="1" fill="#f9f9f9" fill-opacity="1"></use></g></g></g></svg>